<svg xmlns="http://www.w3.org/2000/svg" aria-hidden="true" style="position:absolute;width:0;height:0;overflow:hidden">
    <defs>

        <symbol id="icon-subtract" viewBox="0 0 125 32">
            <path
                d="M48.8 0h-32.8c-8.837 0-16 7.163-16 16s7.163 16 16 16h32.8v-0.8h-32.8c-8.395 0-15.2-6.805-15.2-15.2s6.805-15.2 15.2-15.2h32.8v-0.8zM76 31.2h32.8c8.394 0 15.2-6.805 15.2-15.2s-6.806-15.2-15.2-15.2h-32.8v-0.8h32.8c8.837 0 16 7.163 16 16s-7.163 16-16 16h-32.8v-0.8z">
            </path>
        </symbol>
        <svg aria-hidden="true" style="position: absolute; width: 0; height: 0; overflow: hidden;" version="1.1"
            xmlns="http://www.w3.org/2000/svg" xmlns:xlink="http://www.w3.org/1999/xlink">
            <defs>
                <symbol id="icon-btn-top" viewBox="0 0 70 32">
                    <path
                        d="M35.042 1.334l-3.493 6.62-3.381 6.62c2.423 4.648 4.564 8.677 6.958 13.241l6.959-13.241-3.578-6.62-3.465-6.62z">
                    </path>
                    <path
                        d="M70.116 23.9l-0.338-0.197-0.338-0.225-0.366-0.197-0.338-0.225-0.366-0.197-0.676-0.394-0.732-0.394-0.338-0.169-0.732-0.394-0.338-0.197-0.366-0.169-0.366-0.197-1.099-0.507-0.366-0.197-0.197-0.084-3.24 7.071 0.141 0.056 0.338 0.141 0.31 0.169 0.338 0.169 0.31 0.141 0.31 0.169 0.338 0.169 0.31 0.169 0.31 0.141 0.31 0.169 0.338 0.197 1.24 0.676 0.31 0.197 0.62 0.338 0.62 0.394 0.282 0.169 4.057-6.62-0.282-0.169z">
                    </path>
                    <path
                        d="M54.961 16.998l-0.789-0.225-0.394-0.141-0.395-0.113-0.395-0.085-0.422-0.113-0.789-0.225-0.395-0.084-0.422-0.113-0.395-0.113-0.394-0.085-0.423-0.085-0.395-0.085-0.422-0.113-0.395-0.085-0.422-0.056-0.395-0.085-0.225-0.056-1.409 7.635 0.169 0.028 0.366 0.084 0.366 0.056 0.338 0.084 1.099 0.254 0.338 0.085 0.366 0.056 0.366 0.113 0.338 0.084 0.366 0.084 0.366 0.113 0.676 0.169 0.366 0.113 0.338 0.113 0.366 0.084 0.338 0.113 0.366 0.113 0.141 0.056 2.338-7.409-0.141-0.028-0.395-0.141z">
                    </path>
                    <path
                        d="M22.788 15.111l-0.845 0.169-0.394 0.056-0.423 0.085-0.394 0.113-0.423 0.085-0.394 0.085-0.423 0.085-0.789 0.225-0.394 0.084-0.423 0.113-0.789 0.225-0.394 0.085-0.394 0.113-0.394 0.141-0.423 0.113-0.366 0.113-0.169 0.056 2.338 7.409 0.113-0.056 0.366-0.113 0.338-0.084 0.338-0.113 0.366-0.113 0.366-0.084 0.338-0.084 0.366-0.113 0.338-0.084 0.366-0.084 0.338-0.113 0.366-0.056 0.732-0.169 0.338-0.084 0.732-0.169 0.366-0.056 0.366-0.084 0.338-0.056 0.197-0.028-1.409-7.635-0.169 0.028z">
                    </path>
                    <path
                        d="M7.096 20.069l-0.366 0.169-0.366 0.197-1.099 0.507-0.366 0.197-0.366 0.169-0.366 0.197-0.338 0.197-0.366 0.197-0.366 0.169-0.338 0.197-0.366 0.197-0.338 0.197-0.366 0.197-0.338 0.197-0.366 0.225-0.338 0.197-0.338 0.225-0.31 0.169 4.085 6.62 0.254-0.169 0.31-0.197 0.282-0.169 0.31-0.169 0.31-0.197 0.31-0.169 0.338-0.169 0.62-0.338 0.31-0.197 0.31-0.169 0.31-0.141 0.338-0.169 0.62-0.338 0.338-0.141 0.31-0.169 0.338-0.169 0.31-0.141 0.338-0.141 0.169-0.084-3.24-7.043-0.169 0.056z">
                    </path>
                </symbol>
                <symbol id="icon-btn-bottom" viewBox="0 0 70 32">
                    <path
                        d="M35.042 29.356l-3.493-6.62-3.381-6.62c2.423-4.648 4.564-8.677 6.958-13.241l6.959 13.241-3.578 6.62-3.465 6.62z">
                    </path>
                    <path
                        d="M70.116 6.791l-0.338 0.197-0.338 0.225-0.366 0.197-0.338 0.225-0.366 0.197-0.676 0.394-0.732 0.394-0.338 0.169-0.732 0.394-0.338 0.197-0.366 0.169-0.366 0.197-1.099 0.507-0.366 0.197-0.197 0.085-3.24-7.071 0.141-0.056 0.338-0.141 0.31-0.169 0.338-0.169 0.31-0.141 0.31-0.169 0.338-0.169 0.31-0.169 0.31-0.141 0.31-0.169 0.338-0.197 1.24-0.676 0.31-0.197 0.62-0.338 0.62-0.394 0.282-0.169 4.057 6.62-0.282 0.169z">
                    </path>
                    <path
                        d="M54.961 13.692l-0.789 0.225-0.394 0.141-0.395 0.113-0.395 0.085-0.422 0.113-0.789 0.225-0.395 0.085-0.422 0.113-0.395 0.113-0.394 0.085-0.423 0.085-0.395 0.085-0.422 0.113-0.395 0.085-0.422 0.056-0.395 0.085-0.225 0.056-1.409-7.635 0.169-0.028 0.366-0.085 0.366-0.056 0.338-0.085 1.099-0.254 0.338-0.085 0.366-0.056 0.366-0.113 0.338-0.085 0.366-0.085 0.366-0.113 0.676-0.169 0.366-0.113 0.338-0.113 0.366-0.085 0.338-0.113 0.366-0.113 0.141-0.056 2.338 7.409-0.141 0.028-0.395 0.141z">
                    </path>
                    <path
                        d="M22.788 15.58l-0.845-0.169-0.394-0.056-0.423-0.085-0.394-0.113-0.423-0.085-0.394-0.085-0.423-0.085-0.789-0.225-0.394-0.085-0.423-0.113-0.789-0.225-0.394-0.085-0.394-0.113-0.394-0.141-0.423-0.113-0.366-0.113-0.169-0.056 2.338-7.409 0.113 0.056 0.366 0.113 0.338 0.085 0.338 0.113 0.366 0.113 0.366 0.085 0.338 0.085 0.366 0.113 0.338 0.085 0.366 0.085 0.338 0.113 0.366 0.056 0.732 0.169 0.338 0.085 0.732 0.169 0.366 0.056 0.366 0.085 0.338 0.056 0.197 0.028-1.409 7.635-0.169-0.028z">
                    </path>
                    <path
                        d="M7.096 10.622l-0.366-0.169-0.366-0.197-1.099-0.507-0.366-0.197-0.366-0.169-0.366-0.197-0.338-0.197-0.366-0.197-0.366-0.169-0.338-0.197-0.366-0.197-0.338-0.197-0.366-0.197-0.338-0.197-0.366-0.225-0.338-0.197-0.338-0.225-0.31-0.169 4.085-6.62 0.254 0.169 0.31 0.197 0.282 0.169 0.31 0.169 0.31 0.197 0.31 0.169 0.338 0.169 0.62 0.338 0.31 0.197 0.31 0.169 0.31 0.141 0.338 0.169 0.62 0.338 0.338 0.141 0.31 0.169 0.338 0.169 0.31 0.141 0.338 0.141 0.169 0.084-3.24 7.043-0.169-0.056z">
                    </path>
                </symbol>
            </defs>
        </svg>

    </defs>
</svg>